<svg xmlns="http://www.w3.org/2000/svg" viewBox="0 0 500 369.87"><g id="Character"><path d="M-76.86,134s26-162,186.05-127.28,67.67,142.71,166,139.82S400.11,359.36,258.36,369a363.11,363.11,0,0,1-89-5.29c-26.81-4.84-42.15-25.89-64.82-34.46-15.81-6-40.25,1.14-53.3-5.54-39.24-20.08-64.65-41.26-68-51.14C-20.51,261.53-76.86,134-76.86,134Z" style="fill:#f7931e"/><path d="M71.51,98l5.08,71.95A22.44,22.44,0,0,0,99,190.77h0a22.43,22.43,0,0,0,22.38-23.9c-.45-6.85-.86-12.46-.86-12.46s17.42-2.7,17.64-20.12c.12-10.06-1.61-32.88-3.1-50.37A22.84,22.84,0,0,0,112.26,63H101.74A32.23,32.23,0,0,0,71.51,98Z" style="fill:#b78876"/><path d="M120.52,154.16a40.45,40.45,0,0,1-22.7-6.45s5.37,12.53,22.74,11Z" style="fill:#aa6550"/><path d="M129.61,105a2.49,2.49,0,0,1-2.4,2.51,2.38,2.38,0,0,1-2.56-2.24,2.5,2.5,0,0,1,2.4-2.52A2.38,2.38,0,0,1,129.61,105Z" style="fill:#263238"/><path d="M132,101.39c-.31.32-2.2-1.07-4.87-1.07s-4.64,1.35-4.93,1c-.14-.14.17-.73,1-1.35a6.85,6.85,0,0,1,3.94-1.22,6.63,6.63,0,0,1,3.88,1.25C131.9,100.65,132.18,101.24,132,101.39Z" style="fill:#263238"/><path d="M103.5,105a2.49,2.49,0,0,1-2.4,2.51,2.38,2.38,0,0,1-2.56-2.24,2.49,2.49,0,0,1,2.39-2.52A2.4,2.4,0,0,1,103.5,105Z" style="fill:#263238"/><path d="M105.72,101.89c-.31.32-2.19-1.07-4.87-1.07s-4.64,1.35-4.93,1c-.14-.14.17-.73,1-1.35a6.87,6.87,0,0,1,3.94-1.22,6.63,6.63,0,0,1,3.88,1.25C105.59,101.15,105.87,101.74,105.72,101.89Z" style="fill:#263238"/><path d="M115.43,121.73c0-.15,1.65-.44,4.35-.78.68-.07,1.33-.21,1.44-.67a3.42,3.42,0,0,0-.45-2l-2-5.2c-2.81-7.41-4.84-13.5-4.54-13.61s2.82,5.8,5.62,13.21c.68,1.83,1.32,3.57,1.94,5.23a4,4,0,0,1,.35,2.69,1.7,1.7,0,0,1-1.12,1,4.79,4.79,0,0,1-1.16.16C117.13,121.87,115.44,121.89,115.43,121.73Z" style="fill:#263238"/><path d="M107.56,123.58c.43,0,.44,2.88,2.92,5s5.58,1.74,5.61,2.14c0,.19-.69.57-2,.6a7.16,7.16,0,0,1-4.68-1.63,6.26,6.26,0,0,1-2.26-4.14C107,124.29,107.36,123.57,107.56,123.58Z" style="fill:#263238"/><path d="M106.41,91.4c-.26.73-2.93.38-6.07.76s-5.68,1.23-6.1.58c-.19-.31.26-1,1.28-1.7A10.18,10.18,0,0,1,100,89.46a10,10,0,0,1,4.75.56C105.94,90.48,106.52,91.05,106.41,91.4Z" style="fill:#263238"/><path d="M131,93.64c-.47.61-2.31,0-4.53,0s-4.09.41-4.52-.23c-.19-.31.1-.92.92-1.49a6.56,6.56,0,0,1,7.3.22C131,92.72,131.25,93.35,131,93.64Z" style="fill:#263238"/><path d="M77.38,111c-.29-.13-12-3.54-11.58,8.37s12.25,9.07,12.26,8.72S77.38,111,77.38,111Z" style="fill:#b78876"/><path d="M74.28,123.74s-.2.15-.55.32a2.07,2.07,0,0,1-1.55.09c-1.27-.43-2.39-2.39-2.52-4.53a6.87,6.87,0,0,1,.49-3A2.38,2.38,0,0,1,71.66,115a1.05,1.05,0,0,1,1.24.53c.17.32.1.56.17.58s.24-.2.13-.69a1.22,1.22,0,0,0-.49-.73,1.55,1.55,0,0,0-1.16-.27,2.9,2.9,0,0,0-2.1,1.91,7,7,0,0,0-.62,3.35c.16,2.39,1.46,4.6,3.19,5a2.2,2.2,0,0,0,1.89-.38C74.27,124,74.32,123.76,74.28,123.74Z" style="fill:#aa6550"/><path d="M70.76,110.64c1.82-.44,5,1.23,5.73,2.94s1,3.62,1.72,5.32,2.51,3.24,4.33,2.81A3.64,3.64,0,0,0,85,119a10.12,10.12,0,0,0,0-3.84c-.7-5.56-1.87-11.08-2.1-16.68s.58-11.42,3.52-16.19,8.34-8.28,13.93-7.82c3.7.29,7.09,2.22,10.77,2.74a14.54,14.54,0,0,0,12.08-4c.4-.39,2.26-1.62,2.26-1.62,0-.29-.27-2.77-1.25-3.68-7.3-6.75-20.44-8.63-30.07-6.2S75.54,70.89,71.39,79.92s-2.91,21.58-.63,30.72" style="fill:#e8505b"/><path d="M135.22,81.24s-45.69-14.7-65.45,24.82c0,0-3-9.89-3-15.19,0-3.54,2.12-24.63,23.82-31.27C90.64,59.6,123.33,47.13,135.22,81.24Z" style="fill:#e8505b"/><path d="M96,82.22a9.94,9.94,0,0,0,15.82,1.44,5.86,5.86,0,0,0,11.07-.58,13.41,13.41,0,0,0,4.44,3.25,4.56,4.56,0,0,0,5.08-1.06,4.45,4.45,0,0,0-.31-5.24,10.79,10.79,0,0,0-4.64-3.12,33.39,33.39,0,0,0-17.23-2.62,23.23,23.23,0,0,0-15.12,8.24" style="fill:#e8505b"/><path d="M135.22,81.24a21.22,21.22,0,0,0-14.53-6.6c-13.47-.6-38.7,7-50.92,31.42,0,0-3-9.89-3-15.19,0-3.54,2.12-24.63,23.82-31.27C90.64,59.6,123.33,47.13,135.22,81.24Z" style="fill:#1a2226"/><path d="M121.45,65.29a6.21,6.21,0,0,0,.62-2.36c0-.1,0-.2,0-.31-.62-.42-1.25-.82-1.88-1.19l0,.12-.23-.22a26.38,26.38,0,0,0-3.21-1.57,6.77,6.77,0,0,0-2.11.39l-.81.32-.31.14a1.83,1.83,0,0,1,.23-.25,4,4,0,0,1,.71-.58,4.94,4.94,0,0,1,1-.51q-.93-.33-1.86-.6a6.13,6.13,0,0,0-1.09.9,7.16,7.16,0,0,0-1.31,2,6.49,6.49,0,0,0-.57,2.29,4.71,4.71,0,0,0,.37,2.24,5.05,5.05,0,0,0,1.17,1.7,5,5,0,0,0,1.65,1,5.09,5.09,0,0,0,2,.32,5.53,5.53,0,0,0,2-.45A7.39,7.39,0,0,0,120,67.3,7.19,7.19,0,0,0,121.45,65.29Zm-7.1-1a2.45,2.45,0,0,1,.17-.79,2,2,0,0,1,.19-.42,2.25,2.25,0,0,1,.12-.21l.14-.19a3,3,0,0,1,.35-.36,1.08,1.08,0,0,1,.2-.16l.2-.13a2.78,2.78,0,0,1,.44-.19,2.23,2.23,0,0,1,.42-.06,1.94,1.94,0,0,1,.36,0,.71.71,0,0,1,.26.09,1.22,1.22,0,0,1,.21.11V62l-.19,0-.22,0-.27.08a2,2,0,0,0-.3.14,2.8,2.8,0,0,0-.32.2c-.09.09-.2.17-.29.27s-.2.2-.28.32a4.15,4.15,0,0,0-.24.34c-.08.11-.15.23-.22.34s-.23.45-.32.65a6.35,6.35,0,0,0-.25.66l-.07,0,0-.06a1.46,1.46,0,0,1,0-.17,2.53,2.53,0,0,1,0-.58Zm5.39.7a4.65,4.65,0,0,1-.23.43,3.62,3.62,0,0,1-.84,1,3.68,3.68,0,0,1-.6.4,4.19,4.19,0,0,1-.69.29,4.45,4.45,0,0,1-1.43.2,4.93,4.93,0,0,1-1.23-.17,5.58,5.58,0,0,1-.81-.31,2.43,2.43,0,0,1-.28-.16l.32,0c.2,0,.49,0,.83,0a7.65,7.65,0,0,0,2.38-.3c.21-.07.4-.15.6-.23l.54-.29a6.57,6.57,0,0,0,.88-.69c.11-.12.23-.22.32-.33s.19-.19.25-.27l.21-.24s0,.11-.08.31A2.9,2.9,0,0,1,119.74,65Z" style="fill:#f7931e"/><path d="M71.68,101.44A85.85,85.85,0,0,1,98.3,75.94c10.5-6.56,27.86-13,39.83-16.22,3.6-1,7.34-1.79,11-1.16s7.25,3.07,8.16,6.68c1.14,4.51-6.87,11.47-10.63,14.21a122.09,122.09,0,0,1-11.44,6.75s.1-8.37-13.29-10.09C103.71,73.76,71.68,101.44,71.68,101.44Z" style="fill:#263238"/><path d="M169.3,363.7l-4.46-129.45-18.61-64.86-14.49-3.19-5.9-1.48-4.91-7.61s-2.34,13.61-11.11,20.93a10.17,10.17,0,0,1-8.63,2.08c-2-.42-4.32-.94-6-1.4a10.85,10.85,0,0,1-1.2-.38A28.27,28.27,0,0,1,79,165.47c-2-3.46-3.6-7-3-8.36l-6.88,14.25L28.59,190l-23,56.18,44.59,13.19,1.39,46.3-2.44,16.94A431.47,431.47,0,0,0,169.3,363.7Z" style="fill:#1a2226"/><path d="M113.61,219.68a4.76,4.76,0,0,1-.79,0l-2.25-.06-8-.28h-.15v-.16c-.14-3.48-.3-7.6-.47-12l-.54-16.31c0-2.05-.09-3.73-.12-5,0-.55,0-1,0-1.35a1.48,1.48,0,0,1,0-.47,2.48,2.48,0,0,1,0,.47c0,.35,0,.79.09,1.34.06,1.22.14,2.9.25,4.94.17,4.22.4,10,.65,16.31.15,4.42.29,8.54.41,12l-.16-.16,8,.43,2.24.14A4.12,4.12,0,0,1,113.61,219.68Z" style="fill:#263238"/><path d="M106.74,200.91a1.1,1.1,0,0,1,.6-.19,2.47,2.47,0,0,1,1.66.46,2.61,2.61,0,0,1,.81.92,2.34,2.34,0,0,1,.22,1.4,2.85,2.85,0,0,1-2.06,2.33,3,3,0,0,1-2.94-1.05,2.86,2.86,0,0,1-.55-2.49,3.07,3.07,0,0,1,.83-1.51c.3-.29.51-.38.52-.36s-.15.16-.4.46a3.25,3.25,0,0,0-.67,1.47,2.57,2.57,0,0,0,.56,2.19,2.65,2.65,0,0,0,2.55.9,2.49,2.49,0,0,0,1.79-2,2.08,2.08,0,0,0-.83-2,2.46,2.46,0,0,0-1.49-.54C107,200.87,106.75,201,106.74,200.91Z" style="fill:#263238"/><path d="M105.39,184.6a1.29,1.29,0,0,1,.63-.29,2.76,2.76,0,0,1,1.88.28,2.7,2.7,0,0,1,1,.9,2.51,2.51,0,0,1,.41,1.5,3,3,0,0,1-2,2.74,3.1,3.1,0,0,1-3.23-1.12,2.71,2.71,0,0,1-.56-1.46,3.13,3.13,0,0,1,.22-1.33,3,3,0,0,1,1.21-1.47,1.31,1.31,0,0,1,.65-.25s-.22.12-.56.38a3.21,3.21,0,0,0-1,1.44,2.55,2.55,0,0,0,.37,2.46,2.73,2.73,0,0,0,2.82,1A2.66,2.66,0,0,0,109,187a2.29,2.29,0,0,0-1.19-2.14,2.75,2.75,0,0,0-1.72-.37C105.62,184.52,105.4,184.64,105.39,184.6Z" style="fill:#263238"/><path d="M101.28,246.91s.06,0,.19-.09l.58-.22c.51-.18,1.25-.5,2.19-.94a28.6,28.6,0,0,0,7.09-5,56.2,56.2,0,0,0,8.13-10.09,141.93,141.93,0,0,0,7.92-13.8,240.22,240.22,0,0,0,11.25-26.65c1.26-3.48,2.24-6.31,2.93-8.27.34-.95.6-1.71.79-2.25l.22-.58.08-.2a.73.73,0,0,1,0,.21c-.05.16-.11.35-.18.6-.17.55-.42,1.31-.72,2.27-.64,2-1.58,4.82-2.81,8.32a222.88,222.88,0,0,1-11.16,26.73,137.38,137.38,0,0,1-8,13.83,55.49,55.49,0,0,1-8.24,10.08,27.69,27.69,0,0,1-7.23,5,18.88,18.88,0,0,1-2.23.87l-.59.19Z" style="fill:#263238"/><path d="M99.93,263.88a3.83,3.83,0,0,1,.44-.33l1.3-.9c1.12-.78,2.73-1.92,4.67-3.41,3.89-3,9-7.38,14.49-12.43,2.75-2.52,5.39-4.9,7.67-7.18a60.17,60.17,0,0,0,5.66-6.42,35.06,35.06,0,0,0,3.1-4.87c.33-.59.54-1.08.71-1.4a3,3,0,0,1,.26-.48,2.13,2.13,0,0,1-.19.51c-.14.33-.33.83-.64,1.44a31.85,31.85,0,0,1-3,5,57.58,57.58,0,0,1-5.62,6.51c-2.28,2.31-4.92,4.7-7.67,7.22-5.5,5-10.65,9.45-14.59,12.36-2,1.46-3.61,2.57-4.76,3.31-.57.38-1,.65-1.34.84A2.67,2.67,0,0,1,99.93,263.88Z" style="fill:#263238"/><path d="M86.09,339.58l.3.11,18-19.64,18.77-20.66,5.66-6.29,1.52-1.73.39-.45.12-.16s-.06,0-.15.13l-.42.43L128.67,293l-5.75,6.21-18.86,20.58C97.11,327.42,90.78,334.33,86.09,339.58Z" style="fill:#263238"/><path d="M145.22,169c.67,1,15.58,2.65,19.23,6.3s40.11,31.49,40.11,31.49l-26,35-16.79-3.7Z" style="fill:#1a2226"/><polygon points="200.17 203.43 171.02 240.16 178.59 241.83 204.56 206.79 200.17 203.43" style="opacity:0.4"/><path d="M153.17,205.47a7.33,7.33,0,0,1-.3-1.22,14,14,0,0,1-.26-1.45c-.07-.57-.19-1.22-.22-1.94s-.12-1.52-.12-2.37,0-1.77.07-2.72a38.4,38.4,0,0,1,1-6.17,39,39,0,0,1,2-5.89c.41-.87.79-1.7,1.22-2.44s.82-1.42,1.21-2,.78-1.15,1.11-1.61.64-.86.9-1.17a6.93,6.93,0,0,1,.84-.93,8.24,8.24,0,0,1-.71,1,14.52,14.52,0,0,0-.85,1.2c-.31.47-.7,1-1.05,1.63s-.78,1.29-1.16,2-.77,1.57-1.17,2.43a41.12,41.12,0,0,0-2,5.84,40,40,0,0,0-1,6.09c-.05,1-.12,1.85-.1,2.7s0,1.63.06,2.35.11,1.36.17,1.93.12,1.06.18,1.45A7.45,7.45,0,0,1,153.17,205.47Z" style="fill:#263238"/><path d="M164.84,234.25c-.1,0-1.54-3.15-3.22-7.12s-3-7.24-2.86-7.28A76.16,76.16,0,0,1,162,227,76.36,76.36,0,0,1,164.84,234.25Z" style="fill:#263238"/><path d="M50.17,208.82c-.06,0-.69-1.12-1.87-2.85A41.29,41.29,0,0,0,43,199.69a40.81,40.81,0,0,0-6.43-5.07c-1.77-1.13-2.94-1.72-2.91-1.78a3.58,3.58,0,0,1,.85.35c.54.25,1.3.65,2.21,1.19a36,36,0,0,1,6.56,5,36.14,36.14,0,0,1,5.22,6.41c.56.89,1,1.64,1.25,2.17A4.37,4.37,0,0,1,50.17,208.82Z" style="fill:#263238"/><polygon points="5.58 246.2 7.37 241.83 56.7 255.26 54.75 260.75 5.58 246.2" style="opacity:0.4"/><g style="opacity:0.2"><path d="M70.27,173.05c.68,6,1.42,12.23,4.4,17.51s8.81,9.44,14.8,8.56c4-.59,7.39-3.27,10.12-6.26s5-6.39,8-9.13a34.54,34.54,0,0,0,6,5.15,11.74,11.74,0,0,0,7.51,2c2.62-.31,4.06-1.35,4.89-3.86a12.27,12.27,0,0,1-7.12.2,19.45,19.45,0,0,1-8.42-3.87c-1.64-1.29-2.23-3.22-4.31-3.1-1.92.11-3.43,1.63-4.7,3.08a52.94,52.94,0,0,1-6.69,6.45c-2.31,1.83-4.56,3.07-7.5,3-4.86-.11-8.84-3.92-11.52-8a39.85,39.85,0,0,1-5.4-12.2"/></g><path d="M127.11,165.54a1.33,1.33,0,0,1,.09.43c0,.28.1.7.15,1.24.11,1.08.23,2.66.27,4.6a65.65,65.65,0,0,1-1.44,15.11l0,.13,0,.12-.12,0a16.49,16.49,0,0,1-8.32-.22,19.71,19.71,0,0,1-6.16-2.89,15.88,15.88,0,0,1-3.36-3.11,7.16,7.16,0,0,1-.73-1c-.16-.24-.24-.37-.22-.37a19.22,19.22,0,0,0,4.47,4.26,20,20,0,0,0,6.1,2.76,16.3,16.3,0,0,0,8.12.19l-.15.15,0-.12a70.72,70.72,0,0,0,1.55-15c0-1.93-.08-3.5-.15-4.58,0-.51-.06-.92-.08-1.25A2.44,2.44,0,0,1,127.11,165.54Z" style="fill:#263238"/><path d="M103.67,180.77a2.9,2.9,0,0,1-.25.46,13.4,13.4,0,0,1-.86,1.24,32.79,32.79,0,0,1-3.79,4c-.86.79-1.82,1.63-2.86,2.51-.53.45-1.06.91-1.64,1.37a15.24,15.24,0,0,1-1.91,1.23A12,12,0,0,1,87.7,193a8.9,8.9,0,0,1-5.09-1.12,16.4,16.4,0,0,1-4-3.37,38.59,38.59,0,0,1-6.94-11A36.68,36.68,0,0,1,70,172.28c-.16-.63-.26-1.12-.32-1.46a4,4,0,0,1-.08-.52,2.1,2.1,0,0,1,.16.5c.09.33.21.82.39,1.44a44.17,44.17,0,0,0,1.84,5.17,40.18,40.18,0,0,0,4,7.08,41.22,41.22,0,0,0,3,3.75,16.07,16.07,0,0,0,3.9,3.27,8.45,8.45,0,0,0,4.87,1.09,11.68,11.68,0,0,0,4.51-1.35,15.27,15.27,0,0,0,1.87-1.19c.56-.43,1.11-.9,1.63-1.33,1-.87,2-1.7,2.89-2.47a37,37,0,0,0,3.86-3.89c.42-.5.71-.9.91-1.18A2.2,2.2,0,0,1,103.67,180.77Z" style="fill:#263238"/><path d="M87,269.46,93,260.79s4.09-14.22,3.53-16.21-2.36-9.4-1.93-9.49,4.88-1.75,7.29,4.2A39.11,39.11,0,0,1,104,251a2.7,2.7,0,0,0,3.24,2.52c4.11-.85,11-2.14,12.58-1.75,2.37.57,4.48,3.58,4.69,4.59s-1.43,3.28-1.43,3.28a6.23,6.23,0,0,1,2.63,2.58c.08.21.15.42.21.62a3.75,3.75,0,0,1-.82,3.62l-.63.69s2.5.69,2.81,2.12a8.48,8.48,0,0,1-.09,3.16l-2.34,2.43a4,4,0,0,1,1.21,2.3c.12,1.32-3.4,4.59-3.4,4.59l-15.14,5.43-6,1.53Z" style="fill:#b78876"/><path d="M123.17,259.68c0,.11-2.35.54-5.25,1.13s-5.24,1.12-5.27,1a5.49,5.49,0,0,1,1.5-.52c.93-.26,2.24-.59,3.69-.88s2.79-.51,3.75-.64A5.57,5.57,0,0,1,123.17,259.68Z" style="fill:#aa6550"/><path d="M124.55,267.16a22.48,22.48,0,0,1-4,1.44,22.24,22.24,0,0,1-4.13,1,24.33,24.33,0,0,1,4-1.43A23.88,23.88,0,0,1,124.55,267.16Z" style="fill:#aa6550"/><path d="M125.45,274.55a28.27,28.27,0,0,1-4.25,2.08,27.83,27.83,0,0,1-4.41,1.71,27.67,27.67,0,0,1,4.25-2.08A29.06,29.06,0,0,1,125.45,274.55Z" style="fill:#aa6550"/><path d="M52.16,323.08l55.67-37.34-14-25.44L43,286.43,48.74,259l-34.49-10.2-8.6,47h0C4.32,316.65,21.08,333.53,41.3,328h0A36.72,36.72,0,0,0,52.16,323.08Z" style="fill:#b78876"/><path d="M35.62,301.17a2.19,2.19,0,0,1-.19-.7,11.88,11.88,0,0,1-.2-2,13.69,13.69,0,0,1,5.64-11.3,11.41,11.41,0,0,1,1.69-1,2.65,2.65,0,0,1,.67-.27c0,.07-.9.51-2.19,1.53a14.38,14.38,0,0,0-5.52,11.07C35.48,300.14,35.69,301.16,35.62,301.17Z" style="fill:#aa6550"/><path d="M178.59,241.83c.35-.48,39.65,23.46,39.65,23.46l12.59,57.4L249,329.34s5.66-63.87,1.35-73.81-48-45.71-48-45.71Z" style="fill:#b78876"/><path d="M226.82,260.89a12.82,12.82,0,0,1-7.74,5,41.42,41.42,0,0,0,4.11-2.11A42.9,42.9,0,0,0,226.82,260.89Z" style="fill:#aa6550"/><path d="M128.11,255.67c.16.92,7.06,92.51,7.06,92.51l81-5.63,13.7-1.84L209.22,252.1l-9.68-2.32Z" style="fill:#e8a45b"/><path d="M199.54,249.78l-71.43,5.89c.16.92,7.06,92.51,7.06,92.51l84.31-5.87Z" style="opacity:0.4"/><path d="M183.27,290.14c-.1-.26-.21-.53-.35-.81a15.4,15.4,0,0,0-6.71-6.46,14.39,14.39,0,0,0-9.33-.78,14,14,0,0,0-5.21,2.36,17.8,17.8,0,0,0-4.2,4.24,16.93,16.93,0,0,0-2.52,5.37,12,12,0,0,0-.18,5.7,12.58,12.58,0,0,0,2.06,4.75,12.44,12.44,0,0,0,8.19,5.1,13.46,13.46,0,0,0,5.17-.13,18.12,18.12,0,0,0,5.89-2.42,17.56,17.56,0,0,0,4.64-4.22,15.6,15.6,0,0,0,2.69-5.52,13.42,13.42,0,0,0,.1-6.34Q183.41,290.54,183.27,290.14Zm-19.73,8.58c0-.1,0-.26,0-.43a5.57,5.57,0,0,1,.05-.65,4.25,4.25,0,0,1,.17-.8,6.37,6.37,0,0,1,.79-1.86,6.48,6.48,0,0,1,.67-.94c.13-.15.26-.3.4-.44l.46-.42a6.6,6.6,0,0,1,1-.72,3,3,0,0,1,.57-.28q.28-.14.57-.24a7.37,7.37,0,0,1,1.17-.24,6.26,6.26,0,0,1,1.08,0,5.36,5.36,0,0,1,.87.25,2.56,2.56,0,0,1,.6.33,3.91,3.91,0,0,1,.46.37l0,.18-.48,0a3,3,0,0,0-.55,0l-.71.06c-.25,0-.53.13-.82.19s-.56.24-.87.36-.58.32-.86.52a8.35,8.35,0,0,0-.82.65,8.63,8.63,0,0,0-.77.71c-.26.24-.48.5-.7.74a18,18,0,0,0-1.1,1.44c-.61.88-1,1.5-1,1.5l-.17-.09S163.55,298.82,163.54,298.72Zm13.64,1.66a6.84,6.84,0,0,1-.51.8,8.72,8.72,0,0,1-.78,1,9.09,9.09,0,0,1-1.1,1,9,9,0,0,1-1.41.91,10.06,10.06,0,0,1-1.68.7,11.2,11.2,0,0,1-1.83.37,11.47,11.47,0,0,1-3.63-.19,12.31,12.31,0,0,1-4.79-2.17,6.26,6.26,0,0,1-.62-.54l.78.21c.5.13,1.2.31,2,.48a19.59,19.59,0,0,0,6,.4,13.18,13.18,0,0,0,1.57-.27c.51-.14,1-.28,1.48-.46a15.45,15.45,0,0,0,2.51-1.25c.34-.25.68-.44.95-.66s.55-.38.74-.55c.39-.32.64-.49.64-.49S177.43,299.92,177.18,300.38Zm2.37-7.34s-.19-.26-.49-.71c-.13-.23-.34-.48-.55-.78s-.48-.62-.74-1c-.13-.18-.3-.34-.45-.52s-.32-.35-.5-.52-.35-.35-.55-.51-.39-.33-.61-.48a8.76,8.76,0,0,0-1.35-.84c-.23-.13-.5-.21-.74-.33s-.51-.2-.78-.26a14.9,14.9,0,0,0-6.23-.22c-.89.13-1.63.28-2.16.39l-.83.19a5.18,5.18,0,0,1,.69-.52,10.92,10.92,0,0,1,2-1.07,11.72,11.72,0,0,1,3.17-.82,10,10,0,0,1,1.9-.05,9,9,0,0,1,2,.35c.32.08.63.22.95.33a9.34,9.34,0,0,1,.89.46,5.62,5.62,0,0,1,.83.54l.38.29.35.32a6.59,6.59,0,0,1,.63.67,5.44,5.44,0,0,1,.53.68,8.8,8.8,0,0,1,.79,1.36,9.74,9.74,0,0,1,.48,1.21,7.91,7.91,0,0,1,.26,1C179.51,292.73,179.55,293,179.55,293Z" style="fill:#1a2226"/><path d="M228.26,357.74s17.25-11.41,18.58-17.25S249,329.34,249,329.34l-18.43-7.63,1.83,6.64s-6.61,3.93-7.28,8.69c-.45,3.17-9,8.6-9,8.6h0a7.06,7.06,0,0,0-5.93-2.53l-7.18.5,4.85,10.95Z" style="fill:#b78876"/><path d="M235,342.1a2.86,2.86,0,0,1-.81.33c-.54.18-1.34.35-2.29.66a9.28,9.28,0,0,0-3,1.74,14.94,14.94,0,0,1-3.69,2.34,12.48,12.48,0,0,1-7.83.66,4.15,4.15,0,0,1-1.31-.49,1,1,0,0,1-.47-.95.7.7,0,0,1,.39-.56c.15-.06.23,0,.23,0s-.08,0-.2.08a.67.67,0,0,0-.27.51.81.81,0,0,0,.45.75,4.39,4.39,0,0,0,1.25.39,12.74,12.74,0,0,0,7.6-.75,15.34,15.34,0,0,0,3.62-2.26,9.25,9.25,0,0,1,3.13-1.72c1-.28,1.79-.41,2.33-.54A4.33,4.33,0,0,1,235,342.1Z" style="fill:#aa6550"/><path d="M223.05,351c0,.06-.89-.45-2.35-1.06a21.57,21.57,0,0,0-6-1.49c-.6-.06-1.2-.08-1.77-.09h-.11l-.05-.09a18.75,18.75,0,0,0-3.21-3.79c-.93-.84-1.55-1.27-1.52-1.32a1.59,1.59,0,0,1,.48.25,12.71,12.71,0,0,1,1.2.88,16.18,16.18,0,0,1,3.38,3.77l-.16-.09c.58,0,1.18,0,1.8.08a19.11,19.11,0,0,1,6.06,1.63,18.69,18.69,0,0,1,1.68.9A2.89,2.89,0,0,1,223.05,351Z" style="fill:#aa6550"/><path d="M227.71,347.81c0,.12-1.17.55-2.52,1.33s-2.35,1.57-2.43,1.49a5.86,5.86,0,0,1,2.23-1.84A6,6,0,0,1,227.71,347.81Z" style="fill:#aa6550"/><path d="M237.06,327.29c0,.12-1.2,0-2.58.35s-2.35,1.05-2.42.95a5,5,0,0,1,5-1.3Z" style="fill:#aa6550"/><path d="M120.42,218.35l-.13-9.54a.17.17,0,0,1,.13-.16l3.64-1a.17.17,0,0,1,.12,0l2.26,1a.16.16,0,0,1,.11.18l-.52,3.63a.14.14,0,0,1-.06.11l-1,.76a.16.16,0,0,0,0,.21l1.62,3.4a.17.17,0,0,1-.06.22l-2,1.28a.18.18,0,0,1-.27-.13l-.34-3.42a.16.16,0,0,0-.22-.14l-1.34.49a.16.16,0,0,0-.1.22l.86,2.24a.16.16,0,0,1-.12.22l-2.35.61A.16.16,0,0,1,120.42,218.35Zm1.88-8.22v2.32a.17.17,0,0,0,.29.12l2.08-2.06a.17.17,0,0,0-.1-.29L122.5,210A.18.18,0,0,0,122.3,210.13Z" style="fill:#fff"/><path d="M144.75,211l2.42.58a.19.19,0,0,0,.23-.19l-.19-2.9a.18.18,0,0,0-.24-.16l-4.48,1.34a.15.15,0,0,0-.11.08l-.78,1.36a.19.19,0,0,0,0,.19l1.38,2.26a.22.22,0,0,0,.09.07l2.29,1a.18.18,0,0,1,.11.21L145,217a.18.18,0,0,1-.24.13l-1.09-.4a.17.17,0,0,0-.1,0l-3.35.52a.18.18,0,0,1-.21-.2l.57-6.8a.18.18,0,0,0-.08-.17l-1.93-1.26a.19.19,0,0,0-.29.15l0,7.83a.2.2,0,0,1-.16.19l-1.69.26a.18.18,0,0,1-.21-.2l.57-6.8a.18.18,0,0,0-.08-.17l-1.93-1.29a.19.19,0,0,0-.29.16l.06,10a.2.2,0,0,0,.19.19h8.06l3.13-.28a.18.18,0,0,0,.15-.1l1.7-3.7a.19.19,0,0,0,0-.2l-3.22-3.56A.18.18,0,0,1,144.75,211Z" style="fill:#fff"/><path d="M126.21,216.59a4.19,4.19,0,0,0,.91.65c.09-.17.18-.34.26-.51l.5-1a4.62,4.62,0,0,1-.4-.28,3.93,3.93,0,0,1-.54-.52,2.69,2.69,0,0,1-.18-.23l.25.13.66.31.42.17q.66-1.35,1.29-2.67l-.2.11-.29.21a5.11,5.11,0,0,0-.47.4c-.27.25-.44.44-.44.44l0,0v-.05a1.31,1.31,0,0,1,0-.15,1.23,1.23,0,0,1,.06-.22,2,2,0,0,1,.12-.26,2.38,2.38,0,0,1,.4-.57,2.5,2.5,0,0,1,.29-.27l.17-.12.19-.11a2.71,2.71,0,0,1,.39-.17l.19,0,.82-1.78c-.28,0-.54-.08-.78-.1l-.76,0h-.29l.27-.12a3.92,3.92,0,0,1,1.79-.27c.17-.37.33-.73.49-1.1a6.83,6.83,0,0,0-1-.09,4.77,4.77,0,0,0-1.93.42,5.88,5.88,0,0,0-1.73,1.13,5.81,5.81,0,0,0-1.25,1.63,4.14,4.14,0,0,0-.48,1.92,4.3,4.3,0,0,0,1.32,3.16Z" style="fill:#f7931e"/><path d="M134.87,212.61a5.25,5.25,0,0,0-1.8-2.68,4.49,4.49,0,0,0-1.67-.77c-.15.36-.31.72-.47,1.08l.34.06a3.9,3.9,0,0,1,.64.26l.3.19.27.22a1.75,1.75,0,0,1,.23.24l.11.13.1.13a1.91,1.91,0,0,1,.16.27,1.66,1.66,0,0,1,.13.27,3.14,3.14,0,0,1,.17.52,2.65,2.65,0,0,1,.07.44,1.47,1.47,0,0,1,0,.35c0,.19,0,.3,0,.3a2.35,2.35,0,0,1-.11-.28c0-.09-.08-.19-.13-.3s-.12-.25-.18-.39a2.12,2.12,0,0,0-.12-.2,1.59,1.59,0,0,0-.13-.22c0-.07-.09-.14-.15-.21a1.57,1.57,0,0,0-.17-.21,2.81,2.81,0,0,0-.39-.38l-.23-.17-.24-.14a3.87,3.87,0,0,0-.93-.35l-.75,1.65h.19l.36.1a1.46,1.46,0,0,1,.28.14,1,1,0,0,1,.18.16.86.86,0,0,1,.13.16l0,.05-.16-.05-.18,0-.25,0h-.29l-.32.05-.2.07c-.48,1-1,2.05-1.48,3.08a6,6,0,0,0,1.2.27,5.24,5.24,0,0,0,.56,0,4.53,4.53,0,0,0,.53-.05,5,5,0,0,0,.94-.24l.37-.15.29-.13.25-.12-.17.22a1.79,1.79,0,0,1-.24.23,2.39,2.39,0,0,1-.33.27,3.15,3.15,0,0,1-.45.27,2.63,2.63,0,0,1-.54.2,3.22,3.22,0,0,1-.62.11,3.53,3.53,0,0,1-.65,0,4.23,4.23,0,0,1-1.21-.33l-.17-.09-.49,1-.26.51.17.09a4.67,4.67,0,0,0,1.76.33,6.16,6.16,0,0,0,2.16-.39,6,6,0,0,0,1.88-1.09,5.34,5.34,0,0,0,1.31-1.67,4.53,4.53,0,0,0,.5-2.14,2.66,2.66,0,0,0,0-.3A1.59,1.59,0,0,0,134.87,212.61Z" style="fill:#f7931e"/></g></svg>