<svg id="Layer_1" data-name="Layer 1" xmlns="http://www.w3.org/2000/svg" viewBox="0 0 176.27 70"><path d="M2.61,67.63,1.84,8.53a1,1,0,0,1,.78-1L25.21,1.36a1.09,1.09,0,0,1,.69,0L40,7.38a1.08,1.08,0,0,1,.64,1.13L37.42,31a1,1,0,0,1-.41.7l-6.2,4.71a1.08,1.08,0,0,0-.32,1.31l10.09,21a1.06,1.06,0,0,1-.38,1.35L28,68a1.06,1.06,0,0,1-1.63-.78L24.22,46.07a1.06,1.06,0,0,0-1.42-.89l-8.29,3a1.06,1.06,0,0,0-.63,1.38l5.35,13.83a1.06,1.06,0,0,1-.72,1.41L3.94,68.64A1.07,1.07,0,0,1,2.61,67.63ZM14.3,16.68V31a1.06,1.06,0,0,0,1.81.75L29,19a1.06,1.06,0,0,0-.62-1.81L15.49,15.63A1.06,1.06,0,0,0,14.3,16.68Z" style="fill:#fff"/><path d="M155.32,18.05l15,3.6a1.15,1.15,0,0,0,1.42-1.19L170.58,2.54a1.15,1.15,0,0,0-1.48-1L141.29,9.82a1.09,1.09,0,0,0-.66.53l-4.8,8.39a1.14,1.14,0,0,0,0,1.17l8.57,14a1.13,1.13,0,0,0,.53.46l14.21,6a1.15,1.15,0,0,1,.67,1.31l-3,13.47a1.15,1.15,0,0,1-1.53.82l-6.76-2.52a1.22,1.22,0,0,0-.57-.05l-20.79,3.21a1.14,1.14,0,0,1-1.32-1.23l3.57-42.11a1.13,1.13,0,0,0-.51-1.05l-12-7.85a1.15,1.15,0,0,0-1.77,1l.29,48.51a1.13,1.13,0,0,1-1,1.14L104,56.65a1.14,1.14,0,0,1-1.32-1.23l3.57-42.11a1.18,1.18,0,0,0-.51-1.06l-12-8a1.15,1.15,0,0,0-1.79,1l.38,62.19a1.15,1.15,0,0,0,1.15,1.14h50l19.37-1.74a1.15,1.15,0,0,0,.94-.66l10.53-22.88a1.13,1.13,0,0,0-.19-1.25L154.2,19.94A1.15,1.15,0,0,1,155.32,18.05Z" style="fill:#fff"/><path d="M94.47,29.82A17,17,0,0,0,94.11,28Q90.62,17.23,83,11.38T63.74,5.53a30,30,0,0,0-12,2.59,38,38,0,0,0-10.73,7,36.59,36.59,0,0,0-7.71,10.13,25.54,25.54,0,0,0-3,11.87A27.24,27.24,0,0,0,32.52,48a26.8,26.8,0,0,0,14.89,14.4,29,29,0,0,0,10.91,2,38.61,38.61,0,0,0,13.43-2.41,37.64,37.64,0,0,0,11.63-6.75,33.55,33.55,0,0,0,8.14-10.37,28.69,28.69,0,0,0,3.07-13.25A14.11,14.11,0,0,0,94.47,29.82ZM49.23,38.9A6.81,6.81,0,0,1,49.4,38a8.78,8.78,0,0,1,.4-1.34A10.78,10.78,0,0,1,50.5,35,14.06,14.06,0,0,1,53,31.5a13.39,13.39,0,0,1,1.84-1.66c.34-.25.67-.53,1-.76L57,28.41a15.82,15.82,0,0,1,2.46-1.05A7,7,0,0,1,60.79,27c.44-.1.87-.18,1.3-.24a15.64,15.64,0,0,1,2.57,0,13.06,13.06,0,0,1,2.24.57,12.92,12.92,0,0,1,1.72.9,5.82,5.82,0,0,1,1.11,1,6.18,6.18,0,0,1,.79,1l-.16.35-1-.31A8.37,8.37,0,0,0,68.24,30c-.46-.05-1-.11-1.52-.2s-1.16,0-1.8,0-1.3.24-2,.35-1.37.42-2,.71a20.83,20.83,0,0,0-2,1A19.71,19.71,0,0,0,56.93,33c-.64.39-1.21.84-1.79,1.26a35.88,35.88,0,0,0-3,2.51c-1.67,1.56-2.67,2.71-2.67,2.71l-.3-.25A2.6,2.6,0,0,1,49.23,38.9Zm27.85,9.65A14.71,14.71,0,0,1,75.65,50a18.28,18.28,0,0,1-2.07,1.68,20.93,20.93,0,0,1-2.76,1.62,19.27,19.27,0,0,1-3.38,1.28,20.58,20.58,0,0,1-3.83.7,23.48,23.48,0,0,1-4,0,24.27,24.27,0,0,1-7.52-2,26.11,26.11,0,0,1-5.7-3.49A23.77,23.77,0,0,1,43,46.46a13.67,13.67,0,0,1-1.06-1.41l1.55.8c1,.5,2.38,1.19,4,1.93A42.23,42.23,0,0,0,60,51.33a26.08,26.08,0,0,0,3.41.14,29.51,29.51,0,0,0,3.31-.29,31.83,31.83,0,0,0,5.82-1.5c.83-.36,1.63-.62,2.31-.94s1.31-.55,1.78-.82c1-.49,1.58-.75,1.58-.75S77.82,47.69,77.08,48.55Zm8.28-14.34s-.28-.62-.7-1.7c-.18-.54-.5-1.17-.8-1.9s-.72-1.5-1.11-2.36c-.2-.43-.48-.85-.73-1.29a10.8,10.8,0,0,0-.81-1.31,11.58,11.58,0,0,0-.92-1.32A14.41,14.41,0,0,0,79.24,23a17.77,17.77,0,0,0-2.46-2.36c-.43-.39-.94-.68-1.4-1s-1-.64-1.51-.9c-4.14-2.3-9.17-3-13-3.28-1.92-.11-3.55-.15-4.71-.15l-1.83,0A12.7,12.7,0,0,1,56,14.55a24.36,24.36,0,0,1,4.71-1.32,24.92,24.92,0,0,1,7-.3,22.18,22.18,0,0,1,4,.75,20.74,20.74,0,0,1,4,1.62c.64.32,1.23.76,1.84,1.13s1.16.86,1.68,1.36a13.08,13.08,0,0,1,1.47,1.51l.68.78.58.84a12.74,12.74,0,0,1,1,1.67,12.8,12.8,0,0,1,.8,1.68,19.43,19.43,0,0,1,1,3.2,17.51,17.51,0,0,1,.45,2.76,15.71,15.71,0,0,1,.12,2.14C85.41,33.55,85.36,34.21,85.36,34.21Z" style="fill:#f7931e"/></svg>